<svg width="197" height="172" viewBox="0 0 197 172" fill="none" xmlns="http://www.w3.org/2000/svg">
<g filter="url(#filter0_dd_4040_653)">
<rect x="4" width="189" height="190" rx="10" fill="#DBDBDB"/>
</g>
<path d="M48.793 91.6048C49.903 91.6048 50.873 91.8248 51.703 92.2648C52.533 92.7048 53.173 93.3248 53.623 94.1248C54.083 94.9148 54.313 95.8298 54.313 96.8698C54.313 97.8998 54.083 98.8148 53.623 99.6148C53.173 100.415 52.528 101.035 51.688 101.475C50.858 101.915 49.893 102.135 48.793 102.135H44.848V91.6048H48.793ZM48.628 99.9148C49.598 99.9148 50.353 99.6498 50.893 99.1198C51.433 98.5898 51.703 97.8398 51.703 96.8698C51.703 95.8998 51.433 95.1448 50.893 94.6048C50.353 94.0648 49.598 93.7948 48.628 93.7948H47.413V99.9148H48.628ZM57.0364 92.8948C56.5864 92.8948 56.2164 92.7648 55.9264 92.5048C55.6464 92.2348 55.5064 91.9048 55.5064 91.5148C55.5064 91.1148 55.6464 90.7848 55.9264 90.5248C56.2164 90.2548 56.5864 90.1198 57.0364 90.1198C57.4764 90.1198 57.8364 90.2548 58.1164 90.5248C58.4064 90.7848 58.5514 91.1148 58.5514 91.5148C58.5514 91.9048 58.4064 92.2348 58.1164 92.5048C57.8364 92.7648 57.4764 92.8948 57.0364 92.8948ZM58.3114 93.7648V102.135H55.7464V93.7648H58.3114ZM63.5752 102.255C62.8452 102.255 62.1952 102.13 61.6252 101.88C61.0552 101.63 60.6052 101.29 60.2752 100.86C59.9452 100.42 59.7602 99.9298 59.7202 99.3898H62.2552C62.2852 99.6798 62.4202 99.9148 62.6602 100.095C62.9002 100.275 63.1952 100.365 63.5452 100.365C63.8652 100.365 64.1102 100.305 64.2802 100.185C64.4602 100.055 64.5502 99.8898 64.5502 99.6898C64.5502 99.4498 64.4252 99.2748 64.1752 99.1648C63.9252 99.0448 63.5202 98.9148 62.9602 98.7748C62.3602 98.6348 61.8602 98.4898 61.4602 98.3398C61.0602 98.1798 60.7152 97.9348 60.4252 97.6048C60.1352 97.2648 59.9902 96.8098 59.9902 96.2398C59.9902 95.7598 60.1202 95.3248 60.3802 94.9348C60.6502 94.5348 61.0402 94.2198 61.5502 93.9898C62.0702 93.7598 62.6852 93.6448 63.3952 93.6448C64.4452 93.6448 65.2702 93.9048 65.8702 94.4248C66.4802 94.9448 66.8302 95.6348 66.9202 96.4948H64.5502C64.5102 96.2048 64.3802 95.9748 64.1602 95.8048C63.9502 95.6348 63.6702 95.5498 63.3202 95.5498C63.0202 95.5498 62.7902 95.6098 62.6302 95.7298C62.4702 95.8398 62.3902 95.9948 62.3902 96.1948C62.3902 96.4348 62.5152 96.6148 62.7652 96.7348C63.0252 96.8548 63.4252 96.9748 63.9652 97.0948C64.5852 97.2548 65.0902 97.4148 65.4802 97.5748C65.8702 97.7248 66.2102 97.9748 66.5002 98.3248C66.8002 98.6648 66.9552 99.1248 66.9652 99.7048C66.9652 100.195 66.8252 100.635 66.5452 101.025C66.2752 101.405 65.8802 101.705 65.3602 101.925C64.8502 102.145 64.2552 102.255 63.5752 102.255ZM68.0245 97.9498C68.0245 97.0798 68.1995 96.3198 68.5495 95.6698C68.9095 95.0198 69.4045 94.5198 70.0345 94.1698C70.6745 93.8198 71.4045 93.6448 72.2245 93.6448C73.2745 93.6448 74.1495 93.9198 74.8495 94.4698C75.5595 95.0198 76.0245 95.7948 76.2445 96.7948H73.5145C73.2845 96.1548 72.8395 95.8348 72.1795 95.8348C71.7095 95.8348 71.3345 96.0198 71.0545 96.3898C70.7745 96.7498 70.6345 97.2698 70.6345 97.9498C70.6345 98.6298 70.7745 99.1548 71.0545 99.5248C71.3345 99.8848 71.7095 100.065 72.1795 100.065C72.8395 100.065 73.2845 99.7448 73.5145 99.1048H76.2445C76.0245 100.085 75.5595 100.855 74.8495 101.415C74.1395 101.975 73.2645 102.255 72.2245 102.255C71.4045 102.255 70.6745 102.08 70.0345 101.73C69.4045 101.38 68.9095 100.88 68.5495 100.23C68.1995 99.5798 68.0245 98.8198 68.0245 97.9498ZM81.4265 102.255C80.6065 102.255 79.8665 102.08 79.2065 101.73C78.5565 101.38 78.0415 100.88 77.6615 100.23C77.2915 99.5798 77.1065 98.8198 77.1065 97.9498C77.1065 97.0898 77.2965 96.3348 77.6765 95.6848C78.0565 95.0248 78.5765 94.5198 79.2365 94.1698C79.8965 93.8198 80.6365 93.6448 81.4565 93.6448C82.2765 93.6448 83.0165 93.8198 83.6765 94.1698C84.3365 94.5198 84.8565 95.0248 85.2365 95.6848C85.6165 96.3348 85.8065 97.0898 85.8065 97.9498C85.8065 98.8098 85.6115 99.5698 85.2215 100.23C84.8415 100.88 84.3165 101.38 83.6465 101.73C82.9865 102.08 82.2465 102.255 81.4265 102.255ZM81.4265 100.035C81.9165 100.035 82.3315 99.8548 82.6715 99.4948C83.0215 99.1348 83.1965 98.6198 83.1965 97.9498C83.1965 97.2798 83.0265 96.7648 82.6865 96.4048C82.3565 96.0448 81.9465 95.8648 81.4565 95.8648C80.9565 95.8648 80.5415 96.0448 80.2115 96.4048C79.8815 96.7548 79.7165 97.2698 79.7165 97.9498C79.7165 98.6198 79.8765 99.1348 80.1965 99.4948C80.5265 99.8548 80.9365 100.035 81.4265 100.035ZM92.2673 93.6748C93.2473 93.6748 94.0273 93.9948 94.6073 94.6348C95.1973 95.2648 95.4923 96.1348 95.4923 97.2448V102.135H92.9423V97.5898C92.9423 97.0298 92.7973 96.5948 92.5073 96.2848C92.2173 95.9748 91.8273 95.8198 91.3373 95.8198C90.8473 95.8198 90.4573 95.9748 90.1673 96.2848C89.8773 96.5948 89.7323 97.0298 89.7323 97.5898V102.135H87.1673V93.7648H89.7323V94.8748C89.9923 94.5048 90.3423 94.2148 90.7823 94.0048C91.2223 93.7848 91.7173 93.6748 92.2673 93.6748ZM102.375 93.6748C103.355 93.6748 104.135 93.9948 104.715 94.6348C105.305 95.2648 105.6 96.1348 105.6 97.2448V102.135H103.05V97.5898C103.05 97.0298 102.905 96.5948 102.615 96.2848C102.325 95.9748 101.935 95.8198 101.445 95.8198C100.955 95.8198 100.565 95.9748 100.275 96.2848C99.9847 96.5948 99.8397 97.0298 99.8397 97.5898V102.135H97.2747V93.7648H99.8397V94.8748C100.1 94.5048 100.45 94.2148 100.89 94.0048C101.33 93.7848 101.825 93.6748 102.375 93.6748ZM115.272 97.8148C115.272 98.0548 115.257 98.3048 115.227 98.5648H109.422C109.462 99.0848 109.627 99.4848 109.917 99.7648C110.217 100.035 110.582 100.17 111.012 100.17C111.652 100.17 112.097 99.8998 112.347 99.3598H115.077C114.937 99.9098 114.682 100.405 114.312 100.845C113.952 101.285 113.497 101.63 112.947 101.88C112.397 102.13 111.782 102.255 111.102 102.255C110.282 102.255 109.552 102.08 108.912 101.73C108.272 101.38 107.772 100.88 107.412 100.23C107.052 99.5798 106.872 98.8198 106.872 97.9498C106.872 97.0798 107.047 96.3198 107.397 95.6698C107.757 95.0198 108.257 94.5198 108.897 94.1698C109.537 93.8198 110.272 93.6448 111.102 93.6448C111.912 93.6448 112.632 93.8148 113.262 94.1548C113.892 94.4948 114.382 94.9798 114.732 95.6098C115.092 96.2398 115.272 96.9748 115.272 97.8148ZM112.647 97.1398C112.647 96.6998 112.497 96.3498 112.197 96.0898C111.897 95.8298 111.522 95.6998 111.072 95.6998C110.642 95.6998 110.277 95.8248 109.977 96.0748C109.687 96.3248 109.507 96.6798 109.437 97.1398H112.647ZM116.115 97.9498C116.115 97.0798 116.29 96.3198 116.64 95.6698C117 95.0198 117.495 94.5198 118.125 94.1698C118.765 93.8198 119.495 93.6448 120.315 93.6448C121.365 93.6448 122.24 93.9198 122.94 94.4698C123.65 95.0198 124.115 95.7948 124.335 96.7948H121.605C121.375 96.1548 120.93 95.8348 120.27 95.8348C119.8 95.8348 119.425 96.0198 119.145 96.3898C118.865 96.7498 118.725 97.2698 118.725 97.9498C118.725 98.6298 118.865 99.1548 119.145 99.5248C119.425 99.8848 119.8 100.065 120.27 100.065C120.93 100.065 121.375 99.7448 121.605 99.1048H124.335C124.115 100.085 123.65 100.855 122.94 101.415C122.23 101.975 121.355 102.255 120.315 102.255C119.495 102.255 118.765 102.08 118.125 101.73C117.495 101.38 117 100.88 116.64 100.23C116.29 99.5798 116.115 98.8198 116.115 97.9498ZM130.372 99.9598V102.135H129.067C128.137 102.135 127.412 101.91 126.892 101.46C126.372 101 126.112 100.255 126.112 99.2248V95.8948H125.092V93.7648H126.112V91.7248H128.677V93.7648H130.357V95.8948H128.677V99.2548C128.677 99.5048 128.737 99.6848 128.857 99.7948C128.977 99.9048 129.177 99.9598 129.457 99.9598H130.372ZM139.691 97.8148C139.691 98.0548 139.676 98.3048 139.646 98.5648H133.841C133.881 99.0848 134.046 99.4848 134.336 99.7648C134.636 100.035 135.001 100.17 135.431 100.17C136.071 100.17 136.516 99.8998 136.766 99.3598H139.496C139.356 99.9098 139.101 100.405 138.731 100.845C138.371 101.285 137.916 101.63 137.366 101.88C136.816 102.13 136.201 102.255 135.521 102.255C134.701 102.255 133.971 102.08 133.331 101.73C132.691 101.38 132.191 100.88 131.831 100.23C131.471 99.5798 131.291 98.8198 131.291 97.9498C131.291 97.0798 131.466 96.3198 131.816 95.6698C132.176 95.0198 132.676 94.5198 133.316 94.1698C133.956 93.8198 134.691 93.6448 135.521 93.6448C136.331 93.6448 137.051 93.8148 137.681 94.1548C138.311 94.4948 138.801 94.9798 139.151 95.6098C139.511 96.2398 139.691 96.9748 139.691 97.8148ZM137.066 97.1398C137.066 96.6998 136.916 96.3498 136.616 96.0898C136.316 95.8298 135.941 95.6998 135.491 95.6998C135.061 95.6998 134.696 95.8248 134.396 96.0748C134.106 96.3248 133.926 96.6798 133.856 97.1398H137.066ZM140.534 97.9348C140.534 97.0748 140.694 96.3198 141.014 95.6698C141.344 95.0198 141.789 94.5198 142.349 94.1698C142.909 93.8198 143.534 93.6448 144.224 93.6448C144.774 93.6448 145.274 93.7598 145.724 93.9898C146.184 94.2198 146.544 94.5298 146.804 94.9198V91.0348H149.369V102.135H146.804V100.935C146.564 101.335 146.219 101.655 145.769 101.895C145.329 102.135 144.814 102.255 144.224 102.255C143.534 102.255 142.909 102.08 142.349 101.73C141.789 101.37 141.344 100.865 141.014 100.215C140.694 99.5548 140.534 98.7948 140.534 97.9348ZM146.804 97.9498C146.804 97.3098 146.624 96.8048 146.264 96.4348C145.914 96.0648 145.484 95.8798 144.974 95.8798C144.464 95.8798 144.029 96.0648 143.669 96.4348C143.319 96.7948 143.144 97.2948 143.144 97.9348C143.144 98.5748 143.319 99.0848 143.669 99.4648C144.029 99.8348 144.464 100.02 144.974 100.02C145.484 100.02 145.914 99.8348 146.264 99.4648C146.624 99.0948 146.804 98.5898 146.804 97.9498Z" fill="black"/>
<defs>
<filter id="filter0_dd_4040_653" x="0" y="0" width="197" height="202" filterUnits="userSpaceOnUse" color-interpolation-filters="sRGB">
<feFlood flood-opacity="0" result="BackgroundImageFix"/>
<feColorMatrix in="SourceAlpha" type="matrix" values="0 0 0 0 0 0 0 0 0 0 0 0 0 0 0 0 0 0 127 0" result="hardAlpha"/>
<feOffset dy="4"/>
<feGaussianBlur stdDeviation="2"/>
<feComposite in2="hardAlpha" operator="out"/>
<feColorMatrix type="matrix" values="0 0 0 0 0 0 0 0 0 0 0 0 0 0 0 0 0 0 0.25 0"/>
<feBlend mode="normal" in2="BackgroundImageFix" result="effect1_dropShadow_4040_653"/>
<feColorMatrix in="SourceAlpha" type="matrix" values="0 0 0 0 0 0 0 0 0 0 0 0 0 0 0 0 0 0 127 0" result="hardAlpha"/>
<feOffset dy="8"/>
<feGaussianBlur stdDeviation="2"/>
<feComposite in2="hardAlpha" operator="out"/>
<feColorMatrix type="matrix" values="0 0 0 0 0 0 0 0 0 0 0 0 0 0 0 0 0 0 0.25 0"/>
<feBlend mode="normal" in2="effect1_dropShadow_4040_653" result="effect2_dropShadow_4040_653"/>
<feBlend mode="normal" in="SourceGraphic" in2="effect2_dropShadow_4040_653" result="shape"/>
</filter>
</defs>
</svg>
