<?xml version="1.0" standalone="no"?>
<!DOCTYPE svg PUBLIC "-//W3C//DTD SVG 20010904//EN"
 "http://www.w3.org/TR/2001/REC-SVG-20010904/DTD/svg10.dtd">
<svg version="1.0" xmlns="http://www.w3.org/2000/svg"
 width="512.000000pt" height="512.000000pt" viewBox="0 0 512.000000 512.000000"
 preserveAspectRatio="xMidYMid meet">

<g transform="translate(0.000000,512.000000) scale(0.100000,-0.100000)"
fill="#000000" stroke="none">
<path d="M2360 4414 c-646 -81 -1188 -458 -1470 -1024 -359 -717 -223 -1580
339 -2149 732 -742 1939 -741 2665 3 330 338 512 763 533 1241 33 777 -435
1501 -1163 1799 -230 94 -393 126 -664 131 -113 2 -221 1 -240 -1z m539 -163
c352 -78 633 -229 880 -473 625 -620 682 -1608 133 -2302 -63 -81 -205 -226
-219 -226 -6 0 -13 44 -16 98 -25 400 -315 764 -721 906 -17 6 -11 12 35 43
71 48 176 156 218 226 185 311 136 697 -121 943 -150 144 -322 214 -528 214
-213 0 -402 -80 -546 -231 -155 -163 -222 -342 -211 -563 11 -235 121 -441
306 -573 59 -43 69 -54 55 -59 -223 -78 -415 -223 -542 -407 -104 -151 -169
-331 -179 -500 -3 -53 -9 -97 -12 -97 -16 0 -117 99 -187 183 -488 581 -549
1388 -154 2032 124 203 326 408 533 542 203 130 470 230 703 262 120 17 465 6
573 -18z m-149 -739 c310 -102 491 -427 411 -741 -60 -240 -256 -418 -504
-459 -88 -14 -106 -14 -194 0 -248 41 -444 219 -504 459 -50 198 5 419 141
566 81 88 169 143 290 180 98 30 259 28 360 -5z m36 -1363 c259 -45 492 -204
627 -426 86 -142 127 -296 127 -480 l0 -118 -67 -42 c-563 -343 -1249 -345
-1817 -5 l-78 47 5 150 c5 171 23 249 88 380 122 250 361 433 639 490 80 16
393 19 476 4z"/>
</g>
</svg>
