<svg width="171" height="60" viewBox="0 0 171 60" fill="none" xmlns="http://www.w3.org/2000/svg">
<g filter="url(#filter0_d_4021_1124)">
<path d="M166.136 0H4V44.5161H166.136L141.988 24.601L166.136 0Z" fill="#F3C200"/>
</g>
<path d="M10.8994 60L4 44.5161H10.8994V60Z" fill="#7F451B"/>
<path d="M21.8813 23.896H24.7013V25H20.5133V16.66H21.8813V23.896ZM26.5413 17.512C26.2933 17.512 26.0853 17.428 25.9173 17.26C25.7493 17.092 25.6653 16.884 25.6653 16.636C25.6653 16.388 25.7493 16.18 25.9173 16.012C26.0853 15.844 26.2933 15.76 26.5413 15.76C26.7813 15.76 26.9853 15.844 27.1533 16.012C27.3213 16.18 27.4053 16.388 27.4053 16.636C27.4053 16.884 27.3213 17.092 27.1533 17.26C26.9853 17.428 26.7813 17.512 26.5413 17.512ZM27.2133 18.388V25H25.8453V18.388H27.2133ZM37.0134 18.28C37.5334 18.28 37.9974 18.388 38.4054 18.604C38.8214 18.82 39.1454 19.14 39.3774 19.564C39.6174 19.988 39.7374 20.5 39.7374 21.1V25H38.3814V21.304C38.3814 20.712 38.2334 20.26 37.9374 19.948C37.6414 19.628 37.2374 19.468 36.7254 19.468C36.2134 19.468 35.8054 19.628 35.5014 19.948C35.2054 20.26 35.0574 20.712 35.0574 21.304V25H33.7014V21.304C33.7014 20.712 33.5534 20.26 33.2574 19.948C32.9614 19.628 32.5574 19.468 32.0454 19.468C31.5334 19.468 31.1254 19.628 30.8214 19.948C30.5254 20.26 30.3774 20.712 30.3774 21.304V25H29.0094V18.388H30.3774V19.144C30.6014 18.872 30.8854 18.66 31.2294 18.508C31.5734 18.356 31.9414 18.28 32.3334 18.28C32.8614 18.28 33.3334 18.392 33.7494 18.616C34.1654 18.84 34.4854 19.164 34.7094 19.588C34.9094 19.188 35.2214 18.872 35.6454 18.64C36.0694 18.4 36.5254 18.28 37.0134 18.28ZM42.1741 17.512C41.9261 17.512 41.7181 17.428 41.5501 17.26C41.3821 17.092 41.2981 16.884 41.2981 16.636C41.2981 16.388 41.3821 16.18 41.5501 16.012C41.7181 15.844 41.9261 15.76 42.1741 15.76C42.4141 15.76 42.6181 15.844 42.7861 16.012C42.9541 16.18 43.0381 16.388 43.0381 16.636C43.0381 16.884 42.9541 17.092 42.7861 17.26C42.6181 17.428 42.4141 17.512 42.1741 17.512ZM42.8461 18.388V25H41.4781V18.388H42.8461ZM46.2382 19.504V23.164C46.2382 23.412 46.2942 23.592 46.4062 23.704C46.5262 23.808 46.7262 23.86 47.0062 23.86H47.8462V25H46.7662C46.1502 25 45.6782 24.856 45.3502 24.568C45.0222 24.28 44.8582 23.812 44.8582 23.164V19.504H44.0782V18.388H44.8582V16.744H46.2382V18.388H47.8462V19.504H46.2382ZM55.167 21.532C55.167 21.78 55.151 22.004 55.119 22.204H50.067C50.107 22.732 50.303 23.156 50.655 23.476C51.007 23.796 51.439 23.956 51.951 23.956C52.687 23.956 53.207 23.648 53.511 23.032H54.987C54.787 23.64 54.423 24.14 53.895 24.532C53.375 24.916 52.727 25.108 51.951 25.108C51.319 25.108 50.751 24.968 50.247 24.688C49.751 24.4 49.359 24 49.071 23.488C48.791 22.968 48.651 22.368 48.651 21.688C48.651 21.008 48.787 20.412 49.059 19.9C49.339 19.38 49.727 18.98 50.223 18.7C50.727 18.42 51.303 18.28 51.951 18.28C52.575 18.28 53.131 18.416 53.619 18.688C54.107 18.96 54.487 19.344 54.759 19.84C55.031 20.328 55.167 20.892 55.167 21.532ZM53.739 21.1C53.731 20.596 53.551 20.192 53.199 19.888C52.847 19.584 52.411 19.432 51.891 19.432C51.419 19.432 51.015 19.584 50.679 19.888C50.343 20.184 50.143 20.588 50.079 21.1H53.739ZM56.0573 21.664C56.0573 21 56.1933 20.412 56.4653 19.9C56.7453 19.388 57.1213 18.992 57.5933 18.712C58.0733 18.424 58.6053 18.28 59.1893 18.28C59.6213 18.28 60.0453 18.376 60.4613 18.568C60.8853 18.752 61.2213 19 61.4693 19.312V16.12H62.8493V25H61.4693V24.004C61.2453 24.324 60.9333 24.588 60.5333 24.796C60.1413 25.004 59.6893 25.108 59.1773 25.108C58.6013 25.108 58.0733 24.964 57.5933 24.676C57.1213 24.38 56.7453 23.972 56.4653 23.452C56.1933 22.924 56.0573 22.328 56.0573 21.664ZM61.4693 21.688C61.4693 21.232 61.3733 20.836 61.1813 20.5C60.9973 20.164 60.7533 19.908 60.4493 19.732C60.1453 19.556 59.8173 19.468 59.4653 19.468C59.1133 19.468 58.7853 19.556 58.4813 19.732C58.1773 19.9 57.9293 20.152 57.7373 20.488C57.5533 20.816 57.4613 21.208 57.4613 21.664C57.4613 22.12 57.5533 22.52 57.7373 22.864C57.9293 23.208 58.1773 23.472 58.4813 23.656C58.7933 23.832 59.1213 23.92 59.4653 23.92C59.8173 23.92 60.1453 23.832 60.4493 23.656C60.7533 23.48 60.9973 23.224 61.1813 22.888C61.3733 22.544 61.4693 22.144 61.4693 21.688ZM73.8233 21.532C73.8233 21.78 73.8073 22.004 73.7753 22.204H68.7233C68.7633 22.732 68.9593 23.156 69.3113 23.476C69.6633 23.796 70.0953 23.956 70.6073 23.956C71.3433 23.956 71.8633 23.648 72.1673 23.032H73.6433C73.4433 23.64 73.0793 24.14 72.5513 24.532C72.0313 24.916 71.3833 25.108 70.6073 25.108C69.9753 25.108 69.4073 24.968 68.9033 24.688C68.4073 24.4 68.0153 24 67.7273 23.488C67.4473 22.968 67.3073 22.368 67.3073 21.688C67.3073 21.008 67.4433 20.412 67.7153 19.9C67.9953 19.38 68.3833 18.98 68.8793 18.7C69.3833 18.42 69.9593 18.28 70.6073 18.28C71.2313 18.28 71.7873 18.416 72.2753 18.688C72.7633 18.96 73.1433 19.344 73.4153 19.84C73.6873 20.328 73.8233 20.892 73.8233 21.532ZM72.3953 21.1C72.3873 20.596 72.2073 20.192 71.8553 19.888C71.5033 19.584 71.0673 19.432 70.5473 19.432C70.0753 19.432 69.6713 19.584 69.3353 19.888C68.9993 20.184 68.7993 20.588 68.7353 21.1H72.3953ZM74.7135 21.664C74.7135 21 74.8495 20.412 75.1215 19.9C75.4015 19.388 75.7775 18.992 76.2495 18.712C76.7295 18.424 77.2615 18.28 77.8455 18.28C78.2775 18.28 78.7015 18.376 79.1175 18.568C79.5415 18.752 79.8775 19 80.1255 19.312V16.12H81.5055V25H80.1255V24.004C79.9015 24.324 79.5895 24.588 79.1895 24.796C78.7975 25.004 78.3455 25.108 77.8335 25.108C77.2575 25.108 76.7295 24.964 76.2495 24.676C75.7775 24.38 75.4015 23.972 75.1215 23.452C74.8495 22.924 74.7135 22.328 74.7135 21.664ZM80.1255 21.688C80.1255 21.232 80.0295 20.836 79.8375 20.5C79.6535 20.164 79.4095 19.908 79.1055 19.732C78.8015 19.556 78.4735 19.468 78.1215 19.468C77.7695 19.468 77.4415 19.556 77.1375 19.732C76.8335 19.9 76.5855 20.152 76.3935 20.488C76.2095 20.816 76.1175 21.208 76.1175 21.664C76.1175 22.12 76.2095 22.52 76.3935 22.864C76.5855 23.208 76.8335 23.472 77.1375 23.656C77.4495 23.832 77.7775 23.92 78.1215 23.92C78.4735 23.92 78.8015 23.832 79.1055 23.656C79.4095 23.48 79.6535 23.224 79.8375 22.888C80.0295 22.544 80.1255 22.144 80.1255 21.688ZM83.9983 17.512C83.7503 17.512 83.5423 17.428 83.3743 17.26C83.2063 17.092 83.1223 16.884 83.1223 16.636C83.1223 16.388 83.2063 16.18 83.3743 16.012C83.5423 15.844 83.7503 15.76 83.9983 15.76C84.2383 15.76 84.4423 15.844 84.6103 16.012C84.7783 16.18 84.8623 16.388 84.8623 16.636C84.8623 16.884 84.7783 17.092 84.6103 17.26C84.4423 17.428 84.2383 17.512 83.9983 17.512ZM84.6703 18.388V25H83.3023V18.388H84.6703ZM88.0624 19.504V23.164C88.0624 23.412 88.1184 23.592 88.2304 23.704C88.3504 23.808 88.5504 23.86 88.8304 23.86H89.6704V25H88.5904C87.9744 25 87.5024 24.856 87.1744 24.568C86.8464 24.28 86.6824 23.812 86.6824 23.164V19.504H85.9024V18.388H86.6824V16.744H88.0624V18.388H89.6704V19.504H88.0624ZM91.6273 17.512C91.3793 17.512 91.1713 17.428 91.0033 17.26C90.8353 17.092 90.7513 16.884 90.7513 16.636C90.7513 16.388 90.8353 16.18 91.0033 16.012C91.1713 15.844 91.3793 15.76 91.6273 15.76C91.8673 15.76 92.0713 15.844 92.2393 16.012C92.4073 16.18 92.4913 16.388 92.4913 16.636C92.4913 16.884 92.4073 17.092 92.2393 17.26C92.0713 17.428 91.8673 17.512 91.6273 17.512ZM92.2993 18.388V25H90.9313V18.388H92.2993ZM96.9633 25.108C96.3393 25.108 95.7753 24.968 95.2713 24.688C94.7673 24.4 94.3713 24 94.0833 23.488C93.7953 22.968 93.6513 22.368 93.6513 21.688C93.6513 21.016 93.7993 20.42 94.0953 19.9C94.3913 19.38 94.7953 18.98 95.3073 18.7C95.8193 18.42 96.3913 18.28 97.0233 18.28C97.6553 18.28 98.2273 18.42 98.7393 18.7C99.2513 18.98 99.6553 19.38 99.9513 19.9C100.247 20.42 100.395 21.016 100.395 21.688C100.395 22.36 100.243 22.956 99.9393 23.476C99.6353 23.996 99.2193 24.4 98.6913 24.688C98.1713 24.968 97.5953 25.108 96.9633 25.108ZM96.9633 23.92C97.3153 23.92 97.6433 23.836 97.9473 23.668C98.2593 23.5 98.5113 23.248 98.7033 22.912C98.8953 22.576 98.9913 22.168 98.9913 21.688C98.9913 21.208 98.8993 20.804 98.7153 20.476C98.5313 20.14 98.2873 19.888 97.9833 19.72C97.6793 19.552 97.3513 19.468 96.9993 19.468C96.6473 19.468 96.3193 19.552 96.0153 19.72C95.7193 19.888 95.4833 20.14 95.3073 20.476C95.1313 20.804 95.0433 21.208 95.0433 21.688C95.0433 22.4 95.2233 22.952 95.5833 23.344C95.9513 23.728 96.4113 23.92 96.9633 23.92ZM105.084 18.28C105.604 18.28 106.068 18.388 106.476 18.604C106.892 18.82 107.216 19.14 107.448 19.564C107.68 19.988 107.796 20.5 107.796 21.1V25H106.44V21.304C106.44 20.712 106.292 20.26 105.996 19.948C105.7 19.628 105.296 19.468 104.784 19.468C104.272 19.468 103.864 19.628 103.56 19.948C103.264 20.26 103.116 20.712 103.116 21.304V25H101.748V18.388H103.116V19.144C103.34 18.872 103.624 18.66 103.968 18.508C104.32 18.356 104.692 18.28 105.084 18.28Z" fill="#A60000"/>
<defs>
<filter id="filter0_d_4021_1124" x="0" y="0" width="170.136" height="52.5161" filterUnits="userSpaceOnUse" color-interpolation-filters="sRGB">
<feFlood flood-opacity="0" result="BackgroundImageFix"/>
<feColorMatrix in="SourceAlpha" type="matrix" values="0 0 0 0 0 0 0 0 0 0 0 0 0 0 0 0 0 0 127 0" result="hardAlpha"/>
<feOffset dy="4"/>
<feGaussianBlur stdDeviation="2"/>
<feComposite in2="hardAlpha" operator="out"/>
<feColorMatrix type="matrix" values="0 0 0 0 0 0 0 0 0 0 0 0 0 0 0 0 0 0 0.25 0"/>
<feBlend mode="normal" in2="BackgroundImageFix" result="effect1_dropShadow_4021_1124"/>
<feBlend mode="normal" in="SourceGraphic" in2="effect1_dropShadow_4021_1124" result="shape"/>
</filter>
</defs>
</svg>
