<?xml version="1.0" encoding="UTF-8"?>
<svg version="1.1" xmlns="http://www.w3.org/2000/svg" width="512" height="512">
<path d="M0 0 C11.22 0 22.44 0 34 0 C34.71673794 5.54959947 35.43035492 11.09942369 36.13623047 16.65039062 C36.37694451 18.53603781 36.61943067 20.42145971 36.86376953 22.30664062 C37.21600493 25.02676055 37.56171924 27.74764478 37.90625 30.46875 C38.0156189 31.30241089 38.12498779 32.13607178 38.2376709 32.99499512 C38.86886687 38.04075283 39.10211596 42.91462527 39 48 C42.3 48 45.6 48 49 48 C49 58.56 49 69.12 49 80 C54.28 80 59.56 80 65 80 C65 95.84 65 111.68 65 128 C60.05 128 55.1 128 50 128 C50.29318115 129.04333496 50.5863623 130.08666992 50.88842773 131.16162109 C51.18922997 132.23379883 51.18922997 132.23379883 51.49610901 133.32763672 C51.96906797 135.01023902 52.44380921 136.69234104 52.92002869 138.37402344 C54.40328871 143.62706781 55.84327704 148.88839022 57.23486328 154.16650391 C60.35494256 165.84347738 63.62176651 177.30002879 67.9452858 188.59416771 C89.53939979 245.04837839 91.23421656 299.2775112 90.8125 359 C90.80003243 360.98252097 90.78757871 362.96504203 90.77513885 364.94756317 C90.69243409 377.266968 90.54236028 389.58422397 90.3174336 401.90185499 C90.26985715 404.54439844 90.22654547 407.18699026 90.18337822 409.82960892 C90.11283709 413.95770253 90.01987398 418.0847268 89.90892339 422.2119267 C89.87091317 423.71155959 89.83886836 425.21135852 89.8135078 426.71125865 C89.61957227 437.60432908 88.41471605 447.21189493 80.703125 455.46875 C73.21447536 462.20166435 65.54110905 464.30093124 55.66503906 464.29052734 C54.74388306 464.29724457 53.82272705 464.30396179 52.87365723 464.31088257 C49.83759113 464.32983232 46.80174651 464.33378546 43.765625 464.3359375 C41.64581208 464.34236826 39.52600004 464.34909683 37.40618896 464.35610962 C32.96445662 464.36807537 28.52280201 464.37179123 24.08105469 464.37060547 C18.4074888 464.37040249 12.734425 464.39768601 7.06097794 464.43214989 C2.68216696 464.45446046 -1.69652407 464.45844171 -6.07538605 464.45738602 C-8.16603574 464.45973642 -10.25668902 464.46852815 -12.34728241 464.48405075 C-15.28102578 464.50379172 -18.21369788 464.4978405 -21.14746094 464.48583984 C-21.99975281 464.49707886 -22.85204468 464.50831787 -23.73016357 464.51989746 C-32.33544943 464.43108535 -40.13249999 461.63127661 -46.46484375 455.703125 C-50.69105869 451.01449977 -53.51935013 446.40866493 -54 440 C-54.66 440 -55.32 440 -56 440 C-56.04125 440.804375 -56.0825 441.60875 -56.125 442.4375 C-57.95678452 449.89547984 -62.60408867 455.21341629 -68.6796875 459.7109375 C-76.35457449 463.97476361 -82.85230106 464.4378309 -91.49951172 464.40405273 C-92.73307404 464.41091599 -93.96663635 464.41777924 -95.23757935 464.42485046 C-98.60149433 464.43995685 -101.96485238 464.44162866 -105.32875967 464.43590808 C-108.14659957 464.43280402 -110.96439003 464.43892226 -113.78222287 464.44494683 C-120.435424 464.4589647 -127.08849666 464.45745418 -133.74169922 464.44604492 C-140.58325561 464.4345712 -147.42441964 464.44863275 -154.26592433 464.4754414 C-160.16006394 464.49766473 -166.05408099 464.50422077 -171.94825947 464.49836498 C-175.45964976 464.49500939 -178.97078874 464.49731625 -182.4821434 464.51461601 C-186.4021492 464.53308834 -190.32168005 464.51882997 -194.24169922 464.50170898 C-195.39007263 464.51137695 -196.53844604 464.52104492 -197.72161865 464.53100586 C-207.2310232 464.44435182 -215.38740227 462.3288149 -222.46484375 455.703125 C-226.69105869 451.01449977 -229.51935013 446.40866493 -230 440 C-230.66 440 -231.32 440 -232 440 C-232.04125 440.804375 -232.0825 441.60875 -232.125 442.4375 C-233.95678452 449.89547984 -238.60408867 455.21341629 -244.6796875 459.7109375 C-251.37038594 463.42799219 -257.03581505 464.44376248 -264.56201172 464.40405273 C-265.48345978 464.41091599 -266.40490784 464.41777924 -267.35427856 464.42485046 C-270.3795747 464.44304896 -273.40434873 464.4392905 -276.4296875 464.43359375 C-278.54664273 464.4381592 -280.66359648 464.44346585 -282.7805481 464.44947815 C-287.21036817 464.45839588 -291.64000784 464.45600168 -296.06982422 464.44604492 C-301.72766725 464.434563 -307.38488542 464.45476206 -313.04264641 464.48396206 C-317.41289177 464.50236899 -321.78298867 464.50202252 -326.15326309 464.49632454 C-328.23832195 464.49617184 -330.3233912 464.50217312 -332.40841293 464.51461601 C-335.33239902 464.52960742 -338.25524707 464.51878885 -341.17919922 464.50170898 C-342.028349 464.51137695 -342.87749878 464.52104492 -343.75238037 464.53100586 C-352.35085893 464.42660531 -360.13633404 461.61736255 -366.46875 455.703125 C-372.6719608 448.80363544 -375.30595339 441.50654681 -375.27415466 432.24893188 C-375.27939134 431.48738654 -375.28462802 430.72584121 -375.29002339 429.94121873 C-375.30497896 427.39907257 -375.30572757 424.85712848 -375.30639648 422.31494141 C-375.31402138 420.48782005 -375.32244944 418.6607019 -375.33161926 416.83358765 C-375.35354861 411.8743429 -375.36236199 406.91515982 -375.36744571 401.95587206 C-375.37109353 398.85175253 -375.37733605 395.74764902 -375.3844471 392.64353561 C-375.40894381 381.79701787 -375.42199233 370.95054789 -375.42553711 360.10400391 C-375.4291644 350.02367525 -375.45900132 339.94365256 -375.50094169 329.86341727 C-375.53575684 321.18879753 -375.55108755 312.51427853 -375.55178314 303.83958948 C-375.55257265 298.66797261 -375.56115906 293.49666698 -375.58978081 288.32512283 C-375.61615167 283.45105139 -375.61806164 278.57754483 -375.60212517 273.70343399 C-375.60032523 271.92664853 -375.60686779 270.14982918 -375.62294388 268.37311554 C-375.76047114 252.16924721 -372.65304482 238.9938577 -363.6875 225.1875 C-339.90185061 186.56678192 -335.41671762 140.13566766 -330 96 C-331.17429565 96.0621167 -331.17429565 96.0621167 -332.37231445 96.12548828 C-336.97943999 96.33388154 -340.21486778 96.37115341 -344.4375 94.375 C-349.68109837 89.51507956 -351.22865817 86.68869571 -351.53125 79.5 C-351.54184322 77.00000074 -351.53073565 74.49983276 -351.5 72 C-351.51546875 70.741875 -351.5309375 69.48375 -351.546875 68.1875 C-351.49759561 56.55756355 -351.49759561 56.55756355 -347 52 C-342.36306909 48.33029596 -339.31972159 47.49661712 -333.4375 47.48242188 C-332.70499023 47.4754126 -331.97248047 47.46840332 -331.21777344 47.46118164 C-328.81145618 47.44366603 -326.40632791 47.45520046 -324 47.46875 C-322.31900814 47.46605321 -320.63801779 47.46216923 -318.95703125 47.45715332 C-315.43995257 47.45126702 -311.9232812 47.45979291 -308.40625 47.47851562 C-303.90697811 47.50130499 -299.40866073 47.4881772 -294.90942383 47.46422577 C-291.44003153 47.44974409 -287.97086406 47.45438456 -284.50146484 47.46473694 C-282.84293504 47.46739769 -281.18438456 47.46415743 -279.52587891 47.45481873 C-277.20420579 47.44461354 -274.88405989 47.46020721 -272.5625 47.48242188 C-271.24378906 47.48560425 -269.92507813 47.48878662 -268.56640625 47.49206543 C-263.3274669 48.23820544 -260.30553411 50.67705877 -256.65625 54.375 C-254.03349019 60.11537997 -254.42338641 65.76876141 -254.5 72 C-254.47679687 73.8871875 -254.47679687 73.8871875 -254.453125 75.8125 C-254.50135995 87.19594769 -254.50135995 87.19594769 -259 92 C-262.89089918 95.60619924 -265.57468362 96.20033867 -270.71484375 96.1015625 C-271.70476318 96.08689941 -272.69468262 96.07223633 -273.71459961 96.05712891 C-274.46878174 96.03827637 -275.22296387 96.01942383 -276 96 C-267.90966472 166.42058884 -267.90966472 166.42058884 -239.14526367 230.42602539 C-235.68009549 235.89212802 -233.88563351 241.84060225 -232 248 C-231.98598145 246.57119507 -231.98598145 246.57119507 -231.97167969 245.11352539 C-231.93145797 241.54031581 -231.86561531 237.96793848 -231.79248047 234.39526367 C-231.76445558 232.85631088 -231.74315014 231.3172191 -231.72900391 229.77807617 C-231.59880025 216.4061611 -229.80152279 207.63095405 -220 198 C-217.30947176 195.5604121 -214.52534151 193.26552261 -211.6875 191 C-210.94491943 190.39913574 -210.20233887 189.79827148 -209.43725586 189.17919922 C-207.96738017 187.99119776 -206.49520593 186.80603338 -205.02050781 185.62402344 C-203.25066258 184.20147504 -201.4931932 182.76592319 -199.7421875 181.3203125 C-198.85789063 180.59585938 -197.97359375 179.87140625 -197.0625 179.125 C-196.31097656 178.50882813 -195.55945313 177.89265625 -194.78515625 177.2578125 C-193 176 -193 176 -191 176 C-191 165.44 -191 154.88 -191 144 C-192.98 144 -194.96 144 -197 144 C-201.53659003 141.64097319 -205.12640494 138.8331875 -207 134 C-207.59435293 129.32619029 -207.55785386 124.70544749 -207.5 120 C-207.52320313 118.1128125 -207.52320313 118.1128125 -207.546875 116.1875 C-207.49759561 104.55756355 -207.49759561 104.55756355 -203 100 C-197.62387029 95.43160743 -193.23364282 95.42672384 -186.5 95.48242188 C-185.45537598 95.4754126 -184.41075195 95.46840332 -183.33447266 95.46118164 C-179.88937619 95.44360978 -176.44510449 95.45522218 -173 95.46875 C-170.6015609 95.46605487 -168.20312286 95.46217228 -165.8046875 95.45715332 C-160.78114405 95.45125934 -155.75788533 95.45981841 -150.734375 95.47851562 C-144.29810928 95.50130463 -137.86251078 95.48818108 -131.42626953 95.46422577 C-126.47455832 95.44976539 -121.52300505 95.454375 -116.57128906 95.46473694 C-114.19824138 95.46740353 -111.82517932 95.46413686 -109.45214844 95.45481873 C-106.13437972 95.44464969 -102.81768855 95.46016066 -99.5 95.48242188 C-98.52111816 95.47432495 -97.54223633 95.46622803 -96.53369141 95.45788574 C-89.45918273 95.54573666 -85.70799266 97.25590077 -80.65625 102.375 C-78.03349019 108.11537997 -78.42338641 113.76876141 -78.5 120 C-78.48453125 121.258125 -78.4690625 122.51625 -78.453125 123.8125 C-78.50154584 135.2398176 -78.50154584 135.2398176 -83 140 C-87.57211821 143.77696721 -88.75398581 144 -95 144 C-95 154.56 -95 165.12 -95 176 C-93.68 176.66 -92.36 177.32 -91 178 C-89.79388218 178.88430836 -88.61455866 179.80603538 -87.4609375 180.7578125 C-86.80270996 181.29712402 -86.14448242 181.83643555 -85.46630859 182.39208984 C-84.77617676 182.9639502 -84.08604492 183.53581055 -83.375 184.125 C-81.93790415 185.30778289 -80.50040476 186.49007564 -79.0625 187.671875 C-78.36640625 188.24486328 -77.6703125 188.81785156 -76.953125 189.40820312 C-74.46002879 191.44007653 -71.91780136 193.40587944 -69.375 195.375 C-62.03356733 201.27524538 -55.99928264 208.03116464 -54.6138916 217.69265747 C-54.44580102 220.66663445 -54.3941942 223.61897019 -54.390625 226.59765625 C-54.37408875 227.67252792 -54.35755249 228.7473996 -54.34051514 229.85484314 C-54.29228166 233.25745499 -54.27071842 236.65962069 -54.25 240.0625 C-54.2218198 242.38218361 -54.19188954 244.70184665 -54.16015625 247.02148438 C-54.08652949 252.68090924 -54.03474295 258.34020992 -54 264 C-53.73041473 263.03361603 -53.46082947 262.06723206 -53.18307495 261.07156372 C-49.74742909 248.7559367 -46.31136561 236.44042621 -42.875 224.125 C-42.60193024 223.14635735 -42.32886047 222.16771469 -42.04751587 221.1594162 C-33.38136002 190.1016892 -24.70531872 159.04677654 -16 128 C-20.95 128 -25.9 128 -31 128 C-31 112.16 -31 96.32 -31 80 C-25.72 80 -20.44 80 -15 80 C-15 69.44 -15 58.88 -15 48 C-11.7 48 -8.4 48 -5 48 C-4.95174072 47.04222656 -4.90348145 46.08445313 -4.85375977 45.09765625 C-4.30564137 34.99296161 -3.25161044 25.03367587 -1.9375 15 C-1.298125 10.05 -0.65875 5.1 0 0 Z " fill="#EA9F25" transform="translate(399,24)"/>
<path d="M0 0 C0.73250977 -0.00700928 1.46501953 -0.01401855 2.21972656 -0.02124023 C4.62604382 -0.03875584 7.03117209 -0.02722142 9.4375 -0.01367188 C11.11849186 -0.01636866 12.79948221 -0.02025264 14.48046875 -0.02526855 C17.99754743 -0.03115485 21.5142188 -0.02262896 25.03125 -0.00390625 C29.53052189 0.01888312 34.02883927 0.00575532 38.52807617 -0.01819611 C41.99746847 -0.03267779 45.46663594 -0.02803731 48.93603516 -0.01768494 C50.59456496 -0.01502418 52.25311544 -0.01826444 53.91162109 -0.02760315 C56.23329421 -0.03780834 58.55344011 -0.02221466 60.875 0 C62.19371094 0.00318237 63.51242188 0.00636475 64.87109375 0.00964355 C70.1100331 0.75578357 73.13196589 3.19463689 76.78125 6.89257812 C79.40400981 12.63295809 79.01411359 18.28633953 78.9375 24.51757812 C78.96070313 26.40476562 78.96070313 26.40476562 78.984375 28.33007812 C78.93614005 39.71352581 78.93614005 39.71352581 74.4375 44.51757812 C70.54660082 48.12377737 67.86281638 48.7179168 62.72265625 48.61914062 C61.73273682 48.60447754 60.74281738 48.58981445 59.72290039 48.57470703 C58.96871826 48.55585449 58.21453613 48.53700195 57.4375 48.51757812 C64.76180041 115.67729548 64.76180041 115.67729548 90.7734375 177.29492188 C91.36161255 178.23356079 91.36161255 178.23356079 91.96166992 179.19116211 C93.04124277 180.88608015 94.15031446 182.56211033 95.26171875 184.23632812 C102.18912358 196.65653129 103.16895511 209.54286864 103.06860352 223.43310547 C103.0737557 225.2714405 103.08104669 227.10977057 103.09028625 228.9480896 C103.10863528 233.88999476 103.09597027 238.83135318 103.07619596 243.77323484 C103.05968544 248.9681828 103.06863878 254.16309949 103.07371521 259.35806274 C103.07821998 268.07131589 103.062461 276.7843532 103.03442383 285.49755859 C103.00231889 295.55207247 103.00241639 305.60619864 103.0196386 315.66074026 C103.03552834 325.36774425 103.02875826 335.07460692 103.01170158 344.78160477 C103.00485328 348.89860451 103.00584044 353.0154902 103.01324654 357.13248825 C103.02093583 361.98040478 103.00869726 366.82788224 102.98139763 371.67572403 C102.97454269 373.44856209 102.9743846 375.22144138 102.98161316 376.99427795 C103.02377007 388.68459397 102.52537083 399.00872148 94.140625 407.98632812 C86.65197536 414.71924248 78.97860905 416.81850936 69.10253906 416.80810547 C68.18138306 416.81482269 67.26022705 416.82153992 66.31115723 416.82846069 C63.27509113 416.84741045 60.23924651 416.85136359 57.203125 416.85351562 C55.08331208 416.85994638 52.96350004 416.86667495 50.84368896 416.87368774 C46.40195662 416.88565349 41.96030201 416.88936936 37.51855469 416.88818359 C31.8449888 416.88798062 26.171925 416.91526413 20.49847794 416.94972801 C16.11966696 416.97203859 11.74097593 416.97601983 7.36211395 416.97496414 C5.27146426 416.97731455 3.18081098 416.98610628 1.09021759 417.00162888 C-1.84352578 417.02136985 -4.77619788 417.01541863 -7.70996094 417.00341797 C-8.56225281 417.01465698 -9.41454468 417.025896 -10.29266357 417.03747559 C-18.90371657 416.94860395 -26.68956106 414.14360129 -33.03125 408.22070312 C-39.2344608 401.32121356 -41.86845339 394.02412493 -41.83665466 384.76651001 C-41.84189134 384.00496467 -41.84712802 383.24341933 -41.85252339 382.45879686 C-41.86747896 379.91665069 -41.86822757 377.37470661 -41.86889648 374.83251953 C-41.87652138 373.00539818 -41.88494944 371.17828002 -41.89411926 369.35116577 C-41.91604861 364.39192102 -41.92486199 359.43273794 -41.92994571 354.47345018 C-41.93359353 351.36933065 -41.93983605 348.26522715 -41.9469471 345.16111374 C-41.97144381 334.31459599 -41.98449233 323.46812602 -41.98803711 312.62158203 C-41.9916644 302.54125338 -42.02150132 292.46123069 -42.06344169 282.38099539 C-42.09825684 273.70637565 -42.11358755 265.03185666 -42.11428314 256.3571676 C-42.11507265 251.18555074 -42.12365906 246.0142451 -42.15228081 240.84270096 C-42.17865167 235.96862951 -42.18056164 231.09512296 -42.16462517 226.22101212 C-42.16282523 224.44422666 -42.16936779 222.6674073 -42.18544388 220.89069366 C-42.32297114 204.68682533 -39.21554482 191.51143583 -30.25 177.70507812 C-6.46435061 139.08436004 -1.97921762 92.65324579 3.4375 48.51757812 C2.26320435 48.57969482 2.26320435 48.57969482 1.06518555 48.64306641 C-3.54193999 48.85145967 -6.77736778 48.88873154 -11 46.89257812 C-16.24359837 42.03265768 -17.79115817 39.20627384 -18.09375 32.01757812 C-18.10434322 29.51757887 -18.09323565 27.01741088 -18.0625 24.51757812 C-18.07796875 23.25945312 -18.0934375 22.00132813 -18.109375 20.70507812 C-18.06009561 9.07514167 -18.06009561 9.07514167 -13.5625 4.51757812 C-8.92556909 0.84787408 -5.88222159 0.01419524 0 0 Z " fill="#EC6E6C" transform="translate(65.5625,71.482421875)"/>
<path d="M0 0 C11.22 0 22.44 0 34 0 C34.71673794 5.54959947 35.43035492 11.09942369 36.13623047 16.65039062 C36.37694451 18.53603781 36.61943067 20.42145971 36.86376953 22.30664062 C37.21600493 25.02676055 37.56171924 27.74764478 37.90625 30.46875 C38.0156189 31.30241089 38.12498779 32.13607178 38.2376709 32.99499512 C38.86886687 38.04075283 39.10211596 42.91462527 39 48 C42.3 48 45.6 48 49 48 C49 58.56 49 69.12 49 80 C54.28 80 59.56 80 65 80 C65 95.84 65 111.68 65 128 C60.05 128 55.1 128 50 128 C50.43977173 129.56500244 50.43977173 129.56500244 50.88842773 131.16162109 C51.08896255 131.87620483 51.28949738 132.59078857 51.49610901 133.32702637 C51.96948836 135.01154452 52.44420621 136.69568692 52.92002869 138.3795166 C54.39290499 143.6037478 55.83309821 148.83482811 57.23486328 154.07861328 C60.45519374 166.00279489 63.84331935 177.77444615 67.94532013 189.42835617 C81.18163539 227.05707288 89.90740201 263.21210912 90.60546875 303.171875 C90.61827259 303.8652852 90.63107644 304.55869539 90.64426827 305.27311802 C91.19700693 336.84369629 89.81617478 368.46300631 89 400 C41.48 400 -6.04 400 -55 400 C-56.9804058 323.47712006 -56.9804058 323.47712006 -56.60546875 303.171875 C-56.5927203 302.44210921 -56.57997184 301.71234343 -56.56683707 300.96046352 C-55.82504157 260.9452648 -46.35685756 224.68991468 -33.11669922 187.07421875 C-28.9083032 175.10163248 -25.59601698 162.91132214 -22.31988525 150.65582275 C-20.98251929 145.68332276 -19.58382078 140.72852887 -18.18359375 135.7734375 C-17.75161351 134.23623791 -17.31985795 132.69897514 -16.88842773 131.16162109 C-16.59524658 130.11828613 -16.30206543 129.07495117 -16 128 C-20.95 128 -25.9 128 -31 128 C-31 112.16 -31 96.32 -31 80 C-25.72 80 -20.44 80 -15 80 C-15 69.44 -15 58.88 -15 48 C-11.7 48 -8.4 48 -5 48 C-4.95174072 47.04222656 -4.90348145 46.08445313 -4.85375977 45.09765625 C-4.30564137 34.99296161 -3.25161044 25.03367587 -1.9375 15 C-1.298125 10.05 -0.65875 5.1 0 0 Z " fill="#FF8E25" transform="translate(399,24)"/>
<path d="M0 0 C36.96 0 73.92 0 112 0 C112 63.36 112 126.72 112 192 C75.04 192 38.08 192 0 192 C0 128.64 0 65.28 0 0 Z " fill="#FED239" transform="translate(200,248)"/>
<path d="M0 0 C0.73250977 -0.00700928 1.46501953 -0.01401855 2.21972656 -0.02124023 C4.62604382 -0.03875584 7.03117209 -0.02722142 9.4375 -0.01367188 C11.11849186 -0.01636866 12.79948221 -0.02025264 14.48046875 -0.02526855 C17.99754743 -0.03115485 21.5142188 -0.02262896 25.03125 -0.00390625 C29.53052189 0.01888312 34.02883927 0.00575532 38.52807617 -0.01819611 C41.99746847 -0.03267779 45.46663594 -0.02803731 48.93603516 -0.01768494 C50.59456496 -0.01502418 52.25311544 -0.01826444 53.91162109 -0.02760315 C56.23329421 -0.03780834 58.55344011 -0.02221466 60.875 0 C62.19371094 0.00318237 63.51242188 0.00636475 64.87109375 0.00964355 C70.1100331 0.75578357 73.13196589 3.19463689 76.78125 6.89257812 C79.40400981 12.63295809 79.01411359 18.28633953 78.9375 24.51757812 C78.96070313 26.40476562 78.96070313 26.40476562 78.984375 28.33007812 C78.93614005 39.71352581 78.93614005 39.71352581 74.4375 44.51757812 C70.54660082 48.12377737 67.86281638 48.7179168 62.72265625 48.61914062 C61.73273682 48.60447754 60.74281738 48.58981445 59.72290039 48.57470703 C58.96871826 48.55585449 58.21453613 48.53700195 57.4375 48.51757812 C65.10825327 116.72264075 65.10825327 116.72264075 91.95410156 179.16259766 C97.50611263 187.95829826 102.4375 197.90046568 102.4375 208.51757812 C54.9175 208.51757812 7.3975 208.51757812 -41.5625 208.51757812 C-40.02840976 196.24485623 -36.19318337 187.1854794 -29.75 176.83007812 C-6.14010855 138.69102271 -1.91615031 92.13937038 3.4375 48.51757812 C2.26320435 48.57969482 2.26320435 48.57969482 1.06518555 48.64306641 C-3.54193999 48.85145967 -6.77736778 48.88873154 -11 46.89257812 C-16.24359837 42.03265768 -17.79115817 39.20627384 -18.09375 32.01757812 C-18.10434322 29.51757887 -18.09323565 27.01741088 -18.0625 24.51757812 C-18.07796875 23.25945312 -18.0934375 22.00132813 -18.109375 20.70507812 C-18.06009561 9.07514167 -18.06009561 9.07514167 -13.5625 4.51757812 C-8.92556909 0.84787408 -5.88222159 0.01419524 0 0 Z " fill="#EB413E" transform="translate(65.5625,71.482421875)"/>
<path d="M0 0 C47.52 0 95.04 0 144 0 C144 42.24 144 84.48 144 128 C96.48 128 48.96 128 0 128 C0 85.76 0 43.52 0 0 Z " fill="#D46109" transform="translate(344,296)"/>
<path d="M0 0 C47.52 0 95.04 0 144 0 C144 46.58522727 144 46.58522727 135.703125 55.46875 C128.21447536 62.20166435 120.54110905 64.30093124 110.66503906 64.29052734 C109.28330505 64.30060318 109.28330505 64.30060318 107.87365723 64.31088257 C104.83759113 64.32983232 101.80174651 64.33378546 98.765625 64.3359375 C96.64581208 64.34236826 94.52600004 64.34909683 92.40618896 64.35610962 C87.96445662 64.36807537 83.52280201 64.37179123 79.08105469 64.37060547 C73.4074888 64.37040249 67.734425 64.39768601 62.06097794 64.43214989 C57.68216696 64.45446046 53.30347593 64.45844171 48.92461395 64.45738602 C46.83396426 64.45973642 44.74331098 64.46852815 42.65271759 64.48405075 C39.71897422 64.50379172 36.78630212 64.4978405 33.85253906 64.48583984 C32.57410126 64.50269836 32.57410126 64.50269836 31.26983643 64.51989746 C22.65878343 64.43102583 14.87293894 61.62602317 8.53125 55.703125 C-5.58832943 39.99869482 0 21.56706647 0 0 Z " fill="#FF8E25" transform="translate(344,424)"/>
<path d="M0 0 C11.22 0 22.44 0 34 0 C34.71673794 5.54959947 35.43035492 11.09942369 36.13623047 16.65039062 C36.37694451 18.53603781 36.61943067 20.42145971 36.86376953 22.30664062 C37.21600493 25.02676055 37.56171924 27.74764478 37.90625 30.46875 C38.0156189 31.30241089 38.12498779 32.13607178 38.2376709 32.99499512 C38.86886687 38.04075283 39.10211596 42.91462527 39 48 C42.3 48 45.6 48 49 48 C49 58.56 49 69.12 49 80 C54.28 80 59.56 80 65 80 C65 95.84 65 111.68 65 128 C33.32 128 1.64 128 -31 128 C-31 112.16 -31 96.32 -31 80 C-25.72 80 -20.44 80 -15 80 C-15 69.44 -15 58.88 -15 48 C-11.7 48 -8.4 48 -5 48 C-4.95174072 47.04222656 -4.90348145 46.08445313 -4.85375977 45.09765625 C-4.30564137 34.99296161 -3.25161044 25.03367587 -1.9375 15 C-0.9784375 7.575 -0.9784375 7.575 0 0 Z " fill="#D46109" transform="translate(399,24)"/>
<path d="M0 0 C47.52 0 95.04 0 144 0 C144 30.58522727 144 30.58522727 135.703125 39.46875 C128.21447536 46.20166435 120.54110905 48.30093124 110.66503906 48.29052734 C109.74388306 48.29724457 108.82272705 48.30396179 107.87365723 48.31088257 C104.83759113 48.32983232 101.80174651 48.33378546 98.765625 48.3359375 C96.64581208 48.34236826 94.52600004 48.34909683 92.40618896 48.35610962 C87.96445662 48.36807537 83.52280201 48.37179123 79.08105469 48.37060547 C73.4074888 48.37040249 67.734425 48.39768601 62.06097794 48.43214989 C57.68216696 48.45446046 53.30347593 48.45844171 48.92461395 48.45738602 C46.83396426 48.45973642 44.74331098 48.46852815 42.65271759 48.48405075 C39.71897422 48.50379172 36.78630212 48.4978405 33.85253906 48.48583984 C33.00024719 48.49707886 32.14795532 48.50831787 31.26983643 48.51989746 C22.65878343 48.43102583 14.87293894 45.62602317 8.53125 39.703125 C-2.16005796 27.81177226 0 16.80872024 0 0 Z " fill="#EB413E" transform="translate(24,440)"/>
<path d="M0 0 C1.04462402 -0.00700928 2.08924805 -0.01401855 3.16552734 -0.02124023 C6.61062381 -0.0388121 10.05489551 -0.02719969 13.5 -0.01367188 C15.8984391 -0.016367 18.29687714 -0.0202496 20.6953125 -0.02526855 C25.71885595 -0.03116254 30.74211467 -0.02260346 35.765625 -0.00390625 C42.20189072 0.01888275 48.63748922 0.00575921 55.07373047 -0.01819611 C60.02544168 -0.03265649 64.97699495 -0.02804688 69.92871094 -0.01768494 C72.30175862 -0.01501834 74.67482068 -0.01828502 77.04785156 -0.02760315 C80.36562028 -0.03777219 83.68231145 -0.02226121 87 0 C88.46832275 -0.01214539 88.46832275 -0.01214539 89.96630859 -0.02453613 C97.04081727 0.06331478 100.79200734 1.7734789 105.84375 6.89257812 C108.46650981 12.63295809 108.07661359 18.28633953 108 24.51757812 C108.02320313 26.40476563 108.02320313 26.40476563 108.046875 28.33007812 C107.99759561 39.96001458 107.99759561 39.96001458 103.5 44.51757812 C98.12387029 49.0859707 93.73364282 49.09085428 87 49.03515625 C85.95537598 49.04216553 84.91075195 49.0491748 83.83447266 49.05639648 C80.38937619 49.07396835 76.94510449 49.06235594 73.5 49.04882812 C71.1015609 49.05152325 68.70312286 49.05540585 66.3046875 49.0604248 C61.28114405 49.06631879 56.25788533 49.05775971 51.234375 49.0390625 C44.79810928 49.0162735 38.36251078 49.02939704 31.92626953 49.05335236 C26.97455832 49.06781274 22.02300505 49.06320313 17.07128906 49.05284119 C14.69824138 49.05017459 12.32517932 49.05344127 9.95214844 49.0627594 C6.63437972 49.07292844 3.31768855 49.05741746 0 49.03515625 C-1.46832275 49.04730164 -1.46832275 49.04730164 -2.96630859 49.05969238 C-10.04081727 48.97184147 -13.79200734 47.26167735 -18.84375 42.14257812 C-21.46650981 36.40219816 -21.07661359 30.74881672 -21 24.51757812 C-21.01546875 23.25945312 -21.0309375 22.00132812 -21.046875 20.70507812 C-20.99759561 9.07514167 -20.99759561 9.07514167 -16.5 4.51757812 C-11.12387029 -0.05081445 -6.73364282 -0.05569803 0 0 Z " fill="#FFD239" transform="translate(212.5,119.482421875)"/>
<path d="M0 0 C0.73250977 -0.00700928 1.46501953 -0.01401855 2.21972656 -0.02124023 C4.62604382 -0.03875584 7.03117209 -0.02722142 9.4375 -0.01367188 C11.11849186 -0.01636866 12.79948221 -0.02025264 14.48046875 -0.02526855 C17.99754743 -0.03115485 21.5142188 -0.02262896 25.03125 -0.00390625 C29.53052189 0.01888312 34.02883927 0.00575532 38.52807617 -0.01819611 C41.99746847 -0.03267779 45.46663594 -0.02803731 48.93603516 -0.01768494 C50.59456496 -0.01502418 52.25311544 -0.01826444 53.91162109 -0.02760315 C56.23329421 -0.03780834 58.55344011 -0.02221466 60.875 0 C62.19371094 0.00318237 63.51242188 0.00636475 64.87109375 0.00964355 C70.1100331 0.75578357 73.13196589 3.19463689 76.78125 6.89257812 C79.40400981 12.63295809 79.01411359 18.28633953 78.9375 24.51757812 C78.96070313 26.40476562 78.96070313 26.40476562 78.984375 28.33007812 C78.93509561 39.96001458 78.93509561 39.96001458 74.4375 44.51757812 C69.80056909 48.18728217 66.75722159 49.02096101 60.875 49.03515625 C60.14249023 49.04216553 59.40998047 49.0491748 58.65527344 49.05639648 C56.24895618 49.07391209 53.84382791 49.06237767 51.4375 49.04882812 C49.75650814 49.05152491 48.07551779 49.05540889 46.39453125 49.0604248 C42.87745257 49.0663111 39.3607812 49.05778521 35.84375 49.0390625 C31.34447811 49.01627313 26.84616073 49.02940093 22.34692383 49.05335236 C18.87753153 49.06783404 15.40836406 49.06319356 11.93896484 49.05284119 C10.28043504 49.05018043 8.62188456 49.05342069 6.96337891 49.0627594 C4.64170579 49.07296459 2.32155989 49.05737091 0 49.03515625 C-1.31871094 49.03197388 -2.63742188 49.0287915 -3.99609375 49.0255127 C-9.2350331 48.27937268 -12.25696589 45.84051936 -15.90625 42.14257812 C-18.52900981 36.40219816 -18.13911359 30.74881672 -18.0625 24.51757812 C-18.07796875 23.25945312 -18.0934375 22.00132813 -18.109375 20.70507812 C-18.06009561 9.07514167 -18.06009561 9.07514167 -13.5625 4.51757812 C-8.92556909 0.84787408 -5.88222159 0.01419524 0 0 Z " fill="#C6312E" transform="translate(65.5625,71.482421875)"/>
<path d="M0 0 C11.22 0 22.44 0 34 0 C34.71673794 5.54959947 35.43035492 11.09942369 36.13623047 16.65039062 C36.37694451 18.53603781 36.61943067 20.42145971 36.86376953 22.30664062 C37.21600493 25.02676055 37.56171924 27.74764478 37.90625 30.46875 C38.0156189 31.30241089 38.12498779 32.13607178 38.2376709 32.99499512 C38.86886687 38.04075283 39.10211596 42.91462527 39 48 C42.3 48 45.6 48 49 48 C49 58.56 49 69.12 49 80 C27.88 80 6.76 80 -15 80 C-15 69.44 -15 58.88 -15 48 C-11.7 48 -8.4 48 -5 48 C-4.95174072 47.04222656 -4.90348145 46.08445313 -4.85375977 45.09765625 C-4.30564137 34.99296161 -3.25161044 25.03367587 -1.9375 15 C-1.298125 10.05 -0.65875 5.1 0 0 Z " fill="#FF8E26" transform="translate(399,24)"/>
<path d="M0 0 C4.38713153 1.93817454 8.76566977 1.81735506 13.44921875 1.08203125 C15.17927099 0.31686572 16.88907109 -0.49591281 18.57421875 -1.35546875 C21.03515625 -2.45703125 21.03515625 -2.45703125 23.44921875 -2.91796875 C31.41223044 0.3033143 36.27058218 8.52670023 39.82421875 15.95703125 C41.88806504 26.27626271 40.24168582 35.83301651 34.82421875 44.83203125 C29.38104302 52.42030087 21.52448608 56.4356934 12.44921875 58.08203125 C2.14991544 59.26200801 -5.64237188 56.27535482 -13.6953125 49.91015625 C-20.79636664 42.91374923 -23.49533472 34.32957821 -23.92578125 24.64453125 C-23.70816406 14.79735357 -18.43869123 7.3459343 -11.92578125 0.33203125 C-7.33449356 -3.74911337 -5.12904705 -2.74303875 0 0 Z " fill="#C7312E" transform="translate(87.55078125,341.91796875)"/>
<path d="M0 0 C5.31786045 3.49830738 9.88653297 8.16741141 11.91796875 14.26171875 C12.85595687 20.51145979 12.24365883 25.20376423 8.53515625 30.37890625 C1.92321327 38.07686885 -4.80641192 42.43303977 -15.08203125 43.26171875 C-26.77731377 44.03726799 -35.51591069 42.66705086 -44.58203125 34.88671875 C-48.68652475 31.11538219 -51.50243869 27.34321917 -52.55078125 21.76953125 C-52.65089455 14.13589212 -50.39855159 9.93090075 -45.35546875 4.3515625 C-33.27485336 -7.35619439 -14.42173371 -7.74340592 0 0 Z " fill="#FE8D25" transform="translate(436.08203125,340.73828125)"/>
<path d="M0 0 C11.22 0 22.44 0 34 0 C34.71673794 5.54959947 35.43035492 11.09942369 36.13623047 16.65039062 C36.37694451 18.53603781 36.61943067 20.42145971 36.86376953 22.30664062 C37.21600493 25.02676055 37.56171924 27.74764478 37.90625 30.46875 C38.0156189 31.30241089 38.12498779 32.13607178 38.2376709 32.99499512 C38.38782654 34.19533386 38.38782654 34.19533386 38.54101562 35.41992188 C38.62984009 36.11275269 38.71866455 36.8055835 38.81018066 37.51940918 C39.07677642 41.00332708 39 44.50589679 39 48 C24.48 48 9.96 48 -5 48 C-3.875 30 -3.875 30 -3.02734375 23.4375 C-2.86741943 22.17808594 -2.70749512 20.91867188 -2.54272461 19.62109375 C-2.34300049 18.09613281 -2.14327637 16.57117188 -1.9375 15 C-1.298125 10.05 -0.65875 5.1 0 0 Z " fill="#D36009" transform="translate(399,24)"/>
<path d="M0 0 C4.15594573 0.86582203 5.44578191 2.24238685 8 5.625 C8.92477738 7.97281844 9.66687591 10.29857699 10.32421875 12.734375 C10.82613625 14.82628328 10.82613625 14.82628328 13 15.625 C17.05142119 15.88360135 18.54337669 15.92941554 22 13.625 C22.88780502 11.12456363 23.45392326 8.61736543 24.05859375 6.03515625 C25.19474232 3.12642735 26.32738395 2.18152358 29 0.625 C33.02695637 -0.06043938 34.49736169 0.27533857 37.875 2.625 C40.06415461 5.71557121 40.74842568 7.59103653 40.4765625 11.3828125 C38.69856471 19.74814638 33.97147373 25.86162253 27 30.625 C21.26604251 33.55568938 13.98553156 33.67605169 7.79296875 32.04296875 C0.98059937 29.10034765 -4.27754605 23.14167681 -7.5 16.5625 C-9.09788093 7.17494955 -9.09788093 7.17494955 -5.875 2.625 C-3 0.625 -3 0.625 0 0 Z " fill="#278156" transform="translate(80,311.375)"/>
<path d="M0 0 C0.80232056 -0.00004028 1.60464111 -0.00008057 2.43127441 -0.00012207 C4.12239443 0.00522359 5.8135146 0.02276578 7.50439453 0.05175781 C10.08573724 0.09362006 12.66446867 0.09282315 15.24609375 0.0859375 C16.89324721 0.09643096 18.54038728 0.10936992 20.1875 0.125 C21.3392572 0.12530212 21.3392572 0.12530212 22.51428223 0.12561035 C27.00556641 0.22428421 30.08499362 0.69725983 33.59375 3.59375 C34.76555914 7.54860583 34.9985633 9.66267942 33.34375 13.46875 C31.59375 15.59375 31.59375 15.59375 28.59375 16.59375 C25.83664043 16.71468389 23.10557638 16.78187326 20.34765625 16.796875 C19.13637306 16.80542511 19.13637306 16.80542511 17.90061951 16.81414795 C16.19344388 16.82358834 14.48625011 16.83012812 12.77905273 16.83398438 C10.16943625 16.8437009 7.56060393 16.8747369 4.95117188 16.90625 C3.29167134 16.91277933 1.63216518 16.91803007 -0.02734375 16.921875 C-0.80661728 16.9342218 -1.58589081 16.9465686 -2.38877869 16.95928955 C-5.67506266 16.9457938 -7.99136563 16.82910765 -10.88085938 15.18994141 C-12.65730202 13.33104544 -13.11884837 12.25184068 -13.46875 9.71875 C-13.58347656 9.06132812 -13.69820312 8.40390625 -13.81640625 7.7265625 C-12.44387172 0.58938296 -6.11332719 -0.13053482 0 0 Z " fill="#EA9F26" transform="translate(245.40625,367.40625)"/>
<path d="M0 0 C0.80232056 -0.00004028 1.60464111 -0.00008057 2.43127441 -0.00012207 C4.12239443 0.00522359 5.8135146 0.02276578 7.50439453 0.05175781 C10.08573724 0.09362006 12.66446867 0.09282315 15.24609375 0.0859375 C16.89324721 0.09643096 18.54038728 0.10936992 20.1875 0.125 C21.3392572 0.12530212 21.3392572 0.12530212 22.51428223 0.12561035 C27.00556641 0.22428421 30.08499362 0.69725983 33.59375 3.59375 C34.76555914 7.54860583 34.9985633 9.66267942 33.34375 13.46875 C31.59375 15.59375 31.59375 15.59375 28.59375 16.59375 C25.83664043 16.71468389 23.10557638 16.78187326 20.34765625 16.796875 C19.13637306 16.80542511 19.13637306 16.80542511 17.90061951 16.81414795 C16.19344388 16.82358834 14.48625011 16.83012812 12.77905273 16.83398438 C10.16943625 16.8437009 7.56060393 16.8747369 4.95117188 16.90625 C3.29167134 16.91277933 1.63216518 16.91803007 -0.02734375 16.921875 C-0.80661728 16.9342218 -1.58589081 16.9465686 -2.38877869 16.95928955 C-5.67506266 16.9457938 -7.99136563 16.82910765 -10.88085938 15.18994141 C-12.65730202 13.33104544 -13.11884837 12.25184068 -13.46875 9.71875 C-13.58347656 9.06132812 -13.69820312 8.40390625 -13.81640625 7.7265625 C-12.44387172 0.58938296 -6.11332719 -0.13053482 0 0 Z " fill="#EA9F26" transform="translate(245.40625,327.40625)"/>
<path d="M0 0 C0.80232056 -0.00004028 1.60464111 -0.00008057 2.43127441 -0.00012207 C4.12239443 0.00522359 5.8135146 0.02276578 7.50439453 0.05175781 C10.08573724 0.09362006 12.66446867 0.09282315 15.24609375 0.0859375 C16.89324721 0.09643096 18.54038728 0.10936992 20.1875 0.125 C21.3392572 0.12530212 21.3392572 0.12530212 22.51428223 0.12561035 C27.00556641 0.22428421 30.08499362 0.69725983 33.59375 3.59375 C34.76555914 7.54860583 34.9985633 9.66267942 33.34375 13.46875 C31.59375 15.59375 31.59375 15.59375 28.59375 16.59375 C25.83664043 16.71468389 23.10557638 16.78187326 20.34765625 16.796875 C19.13637306 16.80542511 19.13637306 16.80542511 17.90061951 16.81414795 C16.19344388 16.82358834 14.48625011 16.83012812 12.77905273 16.83398438 C10.16943625 16.8437009 7.56060393 16.8747369 4.95117188 16.90625 C3.29167134 16.91277933 1.63216518 16.91803007 -0.02734375 16.921875 C-0.80661728 16.9342218 -1.58589081 16.9465686 -2.38877869 16.95928955 C-5.67506266 16.9457938 -7.99136563 16.82910765 -10.88085938 15.18994141 C-12.65730202 13.33104544 -13.11884837 12.25184068 -13.46875 9.71875 C-13.58347656 9.06132812 -13.69820312 8.40390625 -13.81640625 7.7265625 C-12.44387172 0.58938296 -6.11332719 -0.13053482 0 0 Z " fill="#EA9F26" transform="translate(245.40625,287.40625)"/>
</svg>
