<svg width="120" height="120" viewBox="0 0 120 120" fill="none" xmlns="http://www.w3.org/2000/svg">
  <path d="M60 10C32.4 10 10 32.4 10 60C10 87.6 32.4 110 60 110C87.6 110 110 87.6 110 60C110 32.4 87.6 10 60 10ZM60 100C37.95 100 20 82.05 20 60C20 37.95 37.95 20 60 20C82.05 20 100 37.95 100 60C100 82.05 82.05 100 60 100Z" fill="#FFC72C"/>
  <path d="M42 50C45.31 50 48 47.31 48 44C48 40.69 45.31 38 42 38C38.69 38 36 40.69 36 44C36 47.31 38.69 50 42 50Z" fill="#FFC72C"/>
  <path d="M78 50C81.31 50 84 47.31 84 44C84 40.69 81.31 38 78 38C74.69 38 72 40.69 72 44C72 47.31 74.69 50 78 50Z" fill="#FFC72C"/>
  <path d="M60 85C70 85 78.5 77.5 80 68H40C41.5 77.5 50 85 60 85Z" fill="#FFC72C"/>
</svg>
